<?xml version="1.0" encoding="UTF-8" standalone="no"?>
<!-- Created with Inkscape (http://www.inkscape.org/) -->

<svg
   width="512"
   height="512"
   viewBox="0 0 135.46667 135.46667"
   version="1.1"
   id="svg1"
   xml:space="preserve"
   xmlns="http://www.w3.org/2000/svg"
   xmlns:svg="http://www.w3.org/2000/svg"><defs
     id="defs1" /><g
     id="layer1"
     style="display:inline"><path
       style="color:#000000;clip-rule:evenodd;display:inline;fill:#f9f9f9;fill-rule:evenodd;stroke:none;stroke-width:0.999936;stroke-linejoin:round;stroke-dasharray:none;stroke-opacity:1;-inkscape-stroke:none;paint-order:stroke fill markers"
       d="m 10,2.203125 c -1.7115193,0 -3.0784647,1.3289495 -3.2363281,3 H 4 C 2.735496,5.203125 1.703125,6.235496 1.703125,7.5 v 12 c 0,1.26453 1.0323764,2.296875 2.296875,2.296875 h 16 c 1.264524,0 2.296875,-1.032351 2.296875,-2.296875 V 7.5 C 22.296875,6.2355014 21.26453,5.203125 20,5.203125 h -2.763672 c -0.157859,-1.6710461 -1.524766,-3 -3.236328,-3 z"
       id="path11"
       transform="matrix(5.3643443,0,0,5.3643443,3.3612008,3.3612008)" /><path
       style="color:#000000;clip-rule:evenodd;display:inline;fill:#ff6600;fill-rule:evenodd;stroke:none;stroke-width:0.999936;stroke-linejoin:round;stroke-dasharray:none;stroke-opacity:1;-inkscape-stroke:none;paint-order:stroke fill markers"
       d="m 17,5.5 h 3 c 1.1046,0 2,0.89543 2,2 v 12 c 0,1.1046 -0.8954,2 -2,2 H 4 c -1.10457,0 -2,-0.8954 -2,-2 v -12 c 0,-1.10457 0.89543,-2 2,-2 h 3 c 0,-1.65685 1.34315,-3 3,-3 h 4 c 1.6569,0 3,1.34315 3,3 z m -3,-1 h -4 c -0.55228,0 -1,0.44772 -1,1 h 6 c 0,-0.55228 -0.4477,-1 -1,-1 z m 6,3 H 4 v 2 h 16 z m -16,12 v -8 h 3 v 2 h 4 v -2 h 2 v 2 h 4 v -2 h 3 v 8 z"
       id="path12"
       transform="matrix(5.3643443,0,0,5.3643443,3.3612008,3.3612008)" /><path
       style="font-size:3.175px;font-family:'BigBlueTermPlus Nerd Font';-inkscape-font-specification:'BigBlueTermPlus Nerd Font';white-space:pre;inline-size:8.52286;fill:#ff6600;stroke-width:22.1529;stroke-linecap:round;stroke-linejoin:round;stroke-miterlimit:4.7;paint-order:stroke fill markers"
       d="m 68.803861,106.3444 v -3.17605 h 4.292136 V 80.936021 h -4.292136 v -3.176055 h 25.752838 v 3.176055 h 4.292136 v 9.528143 h -4.292136 v 3.176043 h 4.292136 v 9.528143 h -4.292136 v 3.17605 z m 12.87642,-3.17605 h 8.584269 v -9.528143 h -8.584269 z m 0,-12.704186 h 8.584269 v -9.528143 h -8.584269 z"
       id="text1"
       aria-label="DB" /><path
       style="font-size:3.175px;font-family:'BigBlueTermPlus Nerd Font';-inkscape-font-specification:'BigBlueTermPlus Nerd Font';white-space:pre;inline-size:8.52286;display:inline;fill:#ff6600;stroke-width:22.15;stroke-linecap:round;stroke-linejoin:round;stroke-miterlimit:4.7;paint-order:stroke fill markers"
       d="m 36.616336,106.318 v -3.17605 h 4.290952 V 80.909615 h -4.290952 v -3.17605 h 21.454798 v 3.17605 h 4.290952 v 3.17605 h 4.290954 v 15.88024 h -4.290954 v 3.176045 h -4.290952 v 3.17605 z m 12.872875,-3.17605 h 4.290953 v -3.176045 h 4.29097 v -15.88024 h -4.29097 v -3.17605 h -4.290953 z"
       id="text1-2"
       aria-label="DB" /></g></svg>
